<svg xmlns="http://www.w3.org/2000/svg" xmlns:xlink="http://www.w3.org/1999/xlink" contentStyleType="text/css" data-diagram-type="DESCRIPTION" height="241px" preserveAspectRatio="none" style="width:403px;height:241px;background:#FFFFFF;" version="1.1" viewBox="0 0 403 241" width="403px" zoomAndPan="magnify"><defs/><g><!--entity Component--><g class="entity" data-entity="Component" data-source-line="1" data-uid="ent0002" id="entity_Component"><rect fill="#F1F1F1" height="36.2969" rx="2.5" ry="2.5" style="stroke:#181818;stroke-width:0.5;" width="101.2793" x="151.48" y="7"/><text fill="#000000" font-family="sans-serif" font-size="14" lengthAdjust="spacing" textLength="81.2793" x="161.48" y="29.9951">Component</text></g><!--entity Literate--><g class="entity" data-entity="Literate" data-source-line="2" data-uid="ent0003" id="entity_Literate"><rect fill="#F1F1F1" height="36.2969" rx="2.5" ry="2.5" style="stroke:#181818;stroke-width:0.5;" width="74.2295" x="7" y="199.59"/><text fill="#000000" font-family="sans-serif" font-size="14" lengthAdjust="spacing" textLength="54.2295" x="17" y="222.5851">Literate</text></g><!--entity Subject--><g class="entity" data-entity="Subject" data-source-line="3" data-uid="ent0004" id="entity_Subject"><rect fill="#F1F1F1" height="36.2969" rx="2.5" ry="2.5" style="stroke:#181818;stroke-width:0.5;" width="72.3359" x="115.95" y="199.59"/><text fill="#000000" font-family="sans-serif" font-size="14" lengthAdjust="spacing" textLength="52.3359" x="125.95" y="222.5851">Subject</text></g><!--entity Class--><g class="entity" data-entity="Class" data-source-line="4" data-uid="ent0005" id="entity_Class"><rect fill="#F1F1F1" height="36.2969" rx="2.5" ry="2.5" style="stroke:#181818;stroke-width:0.5;" width="56.832" x="223.7" y="199.59"/><text fill="#000000" font-family="sans-serif" font-size="14" lengthAdjust="spacing" textLength="36.832" x="233.7" y="222.5851">Class</text></g><!--entity Attribute--><g class="entity" data-entity="Attribute" data-source-line="5" data-uid="ent0006" id="entity_Attribute"><rect fill="#F1F1F1" height="36.2969" rx="2.5" ry="2.5" style="stroke:#181818;stroke-width:0.5;" width="82.0635" x="315.08" y="199.59"/><text fill="#000000" font-family="sans-serif" font-size="14" lengthAdjust="spacing" textLength="62.0635" x="325.08" y="222.5851">Attribute</text></g><!--entity a--><g class="entity" data-entity="a" data-source-line="6" data-uid="ent0007" id="entity_a"><rect fill="#F1F1F1" height="36.2969" rx="2.5" ry="2.5" style="stroke:#181818;stroke-width:0.5;" width="28.5791" x="187.83" y="103.3"/><text fill="#000000" font-family="sans-serif" font-size="14" lengthAdjust="spacing" textLength="8.5791" x="197.83" y="126.2951">a</text></g><!--reverse link a to Literate--><g class="link" data-entity-1="a" data-entity-2="Literate" data-source-line="8" data-uid="lnk9" id="link_a_Literate"><path d="M181.53,121.89 C142.42,121.89 44.11,121.89 44.11,121.89 C44.11,121.89 44.11,171.41 44.11,199.26" fill="none" id="a-backto-Literate" style="stroke:#181818;stroke-width:1;"/><polygon fill="#181818" points="187.53,121.89,178.53,117.89,182.53,121.89,178.53,125.89,187.53,121.89" style="stroke:#181818;stroke-width:1;"/></g><!--reverse link a to Subject--><g class="link" data-entity-1="a" data-entity-2="Subject" data-source-line="9" data-uid="lnk11" id="link_a_Subject"><path d="M202.34,146.04 C202.34,174.07 202.34,217.89 202.34,217.89 C202.34,217.89 196.41,217.89 188.62,217.89" fill="none" id="a-backto-Subject" style="stroke:#181818;stroke-width:1;"/><polygon fill="#181818" points="202.34,140.04,198.34,149.04,202.34,145.04,206.34,149.04,202.34,140.04" style="stroke:#181818;stroke-width:1;"/></g><!--reverse link a to Class--><g class="link" data-entity-1="a" data-entity-2="Class" data-source-line="10" data-uid="lnk13" id="link_a_Class"><path d="M222.8,127.89 C232.8,127.89 238.23,127.89 238.23,127.89 C238.23,127.89 238.23,172.81 238.23,199.12" fill="none" id="a-backto-Class" style="stroke:#181818;stroke-width:1;"/><polygon fill="#181818" points="216.8,127.89,225.8,131.89,221.8,127.89,225.8,123.89,216.8,127.89" style="stroke:#181818;stroke-width:1;"/></g><!--reverse link a to Attribute--><g class="link" data-entity-1="a" data-entity-2="Attribute" data-source-line="11" data-uid="lnk15" id="link_a_Attribute"><path d="M222.88,115.89 C261.43,115.89 356.11,115.89 356.11,115.89 C356.11,115.89 356.11,170.24 356.11,199.53" fill="none" id="a-backto-Attribute" style="stroke:#181818;stroke-width:1;"/><polygon fill="#181818" points="216.88,115.89,225.88,119.89,221.88,115.89,225.88,111.89,216.88,115.89" style="stroke:#181818;stroke-width:1;"/></g><!--reverse link Component to a--><g class="link" data-entity-1="Component" data-entity-2="a" data-source-line="12" data-uid="lnk17" id="link_Component_a"><path d="M202.11,49.71 C202.11,66.77 202.11,85.9 202.11,102.93" fill="none" id="Component-backto-a" style="stroke:#181818;stroke-width:1;"/><polygon fill="#181818" points="202.11,43.71,198.11,52.71,202.11,48.71,206.11,52.71,202.11,43.71" style="stroke:#181818;stroke-width:1;"/></g><!--SRC=[LOx12O0m34NldI8Bk88WNhqvGPIWrPgMD3sulQ9MwotlmNz4Q5JaoH6qVWkUYTN8wpgh9AXKg3uDomc5QHt6M72ZAdP8lnKQarjGfQg6qpobcz5ScGnl8mkyZ-_9k5eEABY1iqow1m8lEli3]--></g></svg>