<svg xmlns="http://www.w3.org/2000/svg" xmlns:xlink="http://www.w3.org/1999/xlink" contentStyleType="text/css" data-diagram-type="JSON" height="1194px" preserveAspectRatio="none" style="width:869px;height:1194px;background:#FFFFFF;" version="1.1" viewBox="0 0 869 1194" width="869px" zoomAndPan="magnify"><defs/><g><rect fill="#F1F1F1" height="202.9688" rx="5" ry="5" style="stroke:#F1F1F1;stroke-width:1.5;" width="23.3506" x="10" y="494.2422"/><text fill="#000000" font-family="sans-serif" font-size="14" lengthAdjust="spacing" textLength="13.3506" x="15" y="509.2373">&#160;&#160;&#160;</text><line style="stroke:#000000;stroke-width:1;" x1="10" x2="33.3506" y1="514.5391" y2="514.5391"/><text fill="#000000" font-family="sans-serif" font-size="14" lengthAdjust="spacing" textLength="13.3506" x="15" y="529.5342">&#160;&#160;&#160;</text><line style="stroke:#000000;stroke-width:1;" x1="10" x2="33.3506" y1="534.8359" y2="534.8359"/><text fill="#000000" font-family="sans-serif" font-size="14" lengthAdjust="spacing" textLength="13.3506" x="15" y="549.8311">&#160;&#160;&#160;</text><line style="stroke:#000000;stroke-width:1;" x1="10" x2="33.3506" y1="555.1328" y2="555.1328"/><text fill="#000000" font-family="sans-serif" font-size="14" lengthAdjust="spacing" textLength="13.3506" x="15" y="570.1279">&#160;&#160;&#160;</text><line style="stroke:#000000;stroke-width:1;" x1="10" x2="33.3506" y1="575.4297" y2="575.4297"/><text fill="#000000" font-family="sans-serif" font-size="14" lengthAdjust="spacing" textLength="13.3506" x="15" y="590.4248">&#160;&#160;&#160;</text><line style="stroke:#000000;stroke-width:1;" x1="10" x2="33.3506" y1="595.7266" y2="595.7266"/><text fill="#000000" font-family="sans-serif" font-size="14" lengthAdjust="spacing" textLength="13.3506" x="15" y="610.7217">&#160;&#160;&#160;</text><line style="stroke:#000000;stroke-width:1;" x1="10" x2="33.3506" y1="616.0234" y2="616.0234"/><text fill="#000000" font-family="sans-serif" font-size="14" lengthAdjust="spacing" textLength="13.3506" x="15" y="631.0186">&#160;&#160;&#160;</text><line style="stroke:#000000;stroke-width:1;" x1="10" x2="33.3506" y1="636.3203" y2="636.3203"/><text fill="#000000" font-family="sans-serif" font-size="14" lengthAdjust="spacing" textLength="13.3506" x="15" y="651.3154">&#160;&#160;&#160;</text><line style="stroke:#000000;stroke-width:1;" x1="10" x2="33.3506" y1="656.6172" y2="656.6172"/><text fill="#000000" font-family="sans-serif" font-size="14" lengthAdjust="spacing" textLength="13.3506" x="15" y="671.6123">&#160;&#160;&#160;</text><line style="stroke:#000000;stroke-width:1;" x1="10" x2="33.3506" y1="676.9141" y2="676.9141"/><text fill="#000000" font-family="sans-serif" font-size="14" lengthAdjust="spacing" textLength="13.3506" x="15" y="691.9092">&#160;&#160;&#160;</text><rect fill="none" height="202.9688" rx="5" ry="5" style="stroke:#000000;stroke-width:1.5;" width="23.3506" x="10" y="494.2422"/><rect fill="#F1F1F1" height="101.4844" rx="5" ry="5" style="stroke:#F1F1F1;stroke-width:1.5;" width="458.4639" x="234.5" y="10"/><text fill="#000000" font-family="sans-serif" font-size="14" font-weight="bold" lengthAdjust="spacing" textLength="38.5615" x="239.5" y="24.9951">label</text><text fill="#000000" font-family="sans-serif" font-size="14" lengthAdjust="spacing" textLength="34.6787" x="356.3662" y="24.9951">Error</text><line style="stroke:#000000;stroke-width:1;" x1="351.3662" x2="351.3662" y1="10" y2="30.2969"/><line style="stroke:#000000;stroke-width:1;" x1="234.5" x2="692.9639" y1="30.2969" y2="30.2969"/><text fill="#000000" font-family="sans-serif" font-size="14" font-weight="bold" lengthAdjust="spacing" textLength="43.2988" x="239.5" y="45.292">emoji</text><text fill="#000000" font-family="sans-serif" font-size="14" lengthAdjust="spacing" textLength="8.4014" x="356.3662" y="45.292">&#10060;</text><line style="stroke:#000000;stroke-width:1;" x1="351.3662" x2="351.3662" y1="30.2969" y2="50.5938"/><line style="stroke:#000000;stroke-width:1;" x1="234.5" x2="692.9639" y1="50.5938" y2="50.5938"/><text fill="#000000" font-family="sans-serif" font-size="14" font-weight="bold" lengthAdjust="spacing" textLength="88.5459" x="239.5" y="65.5889">emojiName</text><text fill="#000000" font-family="sans-serif" font-size="14" lengthAdjust="spacing" textLength="79.6865" x="356.3662" y="65.5889">cross_mark</text><line style="stroke:#000000;stroke-width:1;" x1="351.3662" x2="351.3662" y1="50.5938" y2="70.8906"/><line style="stroke:#000000;stroke-width:1;" x1="234.5" x2="692.9639" y1="70.8906" y2="70.8906"/><text fill="#000000" font-family="sans-serif" font-size="14" font-weight="bold" lengthAdjust="spacing" textLength="106.8662" x="239.5" y="85.8857">emojiUnicode</text><text fill="#000000" font-family="sans-serif" font-size="14" lengthAdjust="spacing" textLength="58.4746" x="356.3662" y="85.8857">U+274C</text><line style="stroke:#000000;stroke-width:1;" x1="351.3662" x2="351.3662" y1="70.8906" y2="91.1875"/><line style="stroke:#000000;stroke-width:1;" x1="234.5" x2="692.9639" y1="91.1875" y2="91.1875"/><text fill="#000000" font-family="sans-serif" font-size="14" font-weight="bold" lengthAdjust="spacing" textLength="64.3604" x="239.5" y="106.1826">purpose</text><text fill="#000000" font-family="sans-serif" font-size="14" lengthAdjust="spacing" textLength="331.5977" x="356.3662" y="106.1826">Indicates a critical error or failure in the model.</text><line style="stroke:#000000;stroke-width:1;" x1="351.3662" x2="351.3662" y1="91.1875" y2="111.4844"/><rect fill="none" height="101.4844" rx="5" ry="5" style="stroke:#000000;stroke-width:1.5;" width="458.4639" x="234.5" y="10"/><rect fill="#F1F1F1" height="101.4844" rx="5" ry="5" style="stroke:#F1F1F1;stroke-width:1.5;" width="487.1475" x="220" y="129"/><text fill="#000000" font-family="sans-serif" font-size="14" font-weight="bold" lengthAdjust="spacing" textLength="38.5615" x="225" y="143.9951">label</text><text fill="#000000" font-family="sans-serif" font-size="14" lengthAdjust="spacing" textLength="58.7002" x="341.8662" y="143.9951">Warning</text><line style="stroke:#000000;stroke-width:1;" x1="336.8662" x2="336.8662" y1="129" y2="149.2969"/><line style="stroke:#000000;stroke-width:1;" x1="220" x2="707.1475" y1="149.2969" y2="149.2969"/><text fill="#000000" font-family="sans-serif" font-size="14" font-weight="bold" lengthAdjust="spacing" textLength="43.2988" x="225" y="164.292">emoji</text><text fill="#000000" font-family="sans-serif" font-size="14" lengthAdjust="spacing" textLength="12.5508" x="341.8662" y="164.292">&#9888;&#65039;</text><line style="stroke:#000000;stroke-width:1;" x1="336.8662" x2="336.8662" y1="149.2969" y2="169.5938"/><line style="stroke:#000000;stroke-width:1;" x1="220" x2="707.1475" y1="169.5938" y2="169.5938"/><text fill="#000000" font-family="sans-serif" font-size="14" font-weight="bold" lengthAdjust="spacing" textLength="88.5459" x="225" y="184.5889">emojiName</text><text fill="#000000" font-family="sans-serif" font-size="14" lengthAdjust="spacing" textLength="56.3076" x="341.8662" y="184.5889">warning</text><line style="stroke:#000000;stroke-width:1;" x1="336.8662" x2="336.8662" y1="169.5938" y2="189.8906"/><line style="stroke:#000000;stroke-width:1;" x1="220" x2="707.1475" y1="189.8906" y2="189.8906"/><text fill="#000000" font-family="sans-serif" font-size="14" font-weight="bold" lengthAdjust="spacing" textLength="106.8662" x="225" y="204.8857">emojiUnicode</text><text fill="#000000" font-family="sans-serif" font-size="14" lengthAdjust="spacing" textLength="58.2764" x="341.8662" y="204.8857">U+26A0</text><line style="stroke:#000000;stroke-width:1;" x1="336.8662" x2="336.8662" y1="189.8906" y2="210.1875"/><line style="stroke:#000000;stroke-width:1;" x1="220" x2="707.1475" y1="210.1875" y2="210.1875"/><text fill="#000000" font-family="sans-serif" font-size="14" font-weight="bold" lengthAdjust="spacing" textLength="64.3604" x="225" y="225.1826">purpose</text><text fill="#000000" font-family="sans-serif" font-size="14" lengthAdjust="spacing" textLength="360.2813" x="341.8662" y="225.1826">Indicates a potential issue or warning in the model.</text><line style="stroke:#000000;stroke-width:1;" x1="336.8662" x2="336.8662" y1="210.1875" y2="230.4844"/><rect fill="none" height="101.4844" rx="5" ry="5" style="stroke:#000000;stroke-width:1.5;" width="487.1475" x="220" y="129"/><rect fill="#F1F1F1" height="101.4844" rx="5" ry="5" style="stroke:#F1F1F1;stroke-width:1.5;" width="727.6016" x="99.5" y="248"/><text fill="#000000" font-family="sans-serif" font-size="14" font-weight="bold" lengthAdjust="spacing" textLength="38.5615" x="104.5" y="262.9951">label</text><text fill="#000000" font-family="sans-serif" font-size="14" lengthAdjust="spacing" textLength="33.1406" x="221.3662" y="262.9951">Note</text><line style="stroke:#000000;stroke-width:1;" x1="216.3662" x2="216.3662" y1="248" y2="268.2969"/><line style="stroke:#000000;stroke-width:1;" x1="99.5" x2="827.1016" y1="268.2969" y2="268.2969"/><text fill="#000000" font-family="sans-serif" font-size="14" font-weight="bold" lengthAdjust="spacing" textLength="43.2988" x="104.5" y="283.292">emoji</text><text fill="#000000" font-family="sans-serif" font-size="14" lengthAdjust="spacing" textLength="8.4014" x="221.3662" y="283.292">&#128216;</text><line style="stroke:#000000;stroke-width:1;" x1="216.3662" x2="216.3662" y1="268.2969" y2="288.5938"/><line style="stroke:#000000;stroke-width:1;" x1="99.5" x2="827.1016" y1="288.5938" y2="288.5938"/><text fill="#000000" font-family="sans-serif" font-size="14" font-weight="bold" lengthAdjust="spacing" textLength="88.5459" x="104.5" y="303.5889">emojiName</text><text fill="#000000" font-family="sans-serif" font-size="14" lengthAdjust="spacing" textLength="71.3877" x="221.3662" y="303.5889">blue_book</text><line style="stroke:#000000;stroke-width:1;" x1="216.3662" x2="216.3662" y1="288.5938" y2="308.8906"/><line style="stroke:#000000;stroke-width:1;" x1="99.5" x2="827.1016" y1="308.8906" y2="308.8906"/><text fill="#000000" font-family="sans-serif" font-size="14" font-weight="bold" lengthAdjust="spacing" textLength="106.8662" x="104.5" y="323.8857">emojiUnicode</text><text fill="#000000" font-family="sans-serif" font-size="14" lengthAdjust="spacing" textLength="67.5322" x="221.3662" y="323.8857">U+1F4D8</text><line style="stroke:#000000;stroke-width:1;" x1="216.3662" x2="216.3662" y1="308.8906" y2="329.1875"/><line style="stroke:#000000;stroke-width:1;" x1="99.5" x2="827.1016" y1="329.1875" y2="329.1875"/><text fill="#000000" font-family="sans-serif" font-size="14" font-weight="bold" lengthAdjust="spacing" textLength="64.3604" x="104.5" y="344.1826">purpose</text><text fill="#000000" font-family="sans-serif" font-size="14" lengthAdjust="spacing" textLength="600.7354" x="221.3662" y="344.1826">Provides additional context, explanations, or clarifications for the annotated element.</text><line style="stroke:#000000;stroke-width:1;" x1="216.3662" x2="216.3662" y1="329.1875" y2="349.4844"/><rect fill="none" height="101.4844" rx="5" ry="5" style="stroke:#000000;stroke-width:1.5;" width="727.6016" x="99.5" y="248"/><rect fill="#F1F1F1" height="101.4844" rx="5" ry="5" style="stroke:#F1F1F1;stroke-width:1.5;" width="660.1035" x="133.5" y="367"/><text fill="#000000" font-family="sans-serif" font-size="14" font-weight="bold" lengthAdjust="spacing" textLength="38.5615" x="138.5" y="381.9951">label</text><text fill="#000000" font-family="sans-serif" font-size="14" lengthAdjust="spacing" textLength="36.2031" x="255.3662" y="381.9951">Issue</text><line style="stroke:#000000;stroke-width:1;" x1="250.3662" x2="250.3662" y1="367" y2="387.2969"/><line style="stroke:#000000;stroke-width:1;" x1="133.5" x2="793.6035" y1="387.2969" y2="387.2969"/><text fill="#000000" font-family="sans-serif" font-size="14" font-weight="bold" lengthAdjust="spacing" textLength="43.2988" x="138.5" y="402.292">emoji</text><text fill="#000000" font-family="sans-serif" font-size="14" lengthAdjust="spacing" textLength="12.5508" x="255.3662" y="402.292">&#9888;&#65039;</text><line style="stroke:#000000;stroke-width:1;" x1="250.3662" x2="250.3662" y1="387.2969" y2="407.5938"/><line style="stroke:#000000;stroke-width:1;" x1="133.5" x2="793.6035" y1="407.5938" y2="407.5938"/><text fill="#000000" font-family="sans-serif" font-size="14" font-weight="bold" lengthAdjust="spacing" textLength="88.5459" x="138.5" y="422.5889">emojiName</text><text fill="#000000" font-family="sans-serif" font-size="14" lengthAdjust="spacing" textLength="56.3076" x="255.3662" y="422.5889">warning</text><line style="stroke:#000000;stroke-width:1;" x1="250.3662" x2="250.3662" y1="407.5938" y2="427.8906"/><line style="stroke:#000000;stroke-width:1;" x1="133.5" x2="793.6035" y1="427.8906" y2="427.8906"/><text fill="#000000" font-family="sans-serif" font-size="14" font-weight="bold" lengthAdjust="spacing" textLength="106.8662" x="138.5" y="442.8857">emojiUnicode</text><text fill="#000000" font-family="sans-serif" font-size="14" lengthAdjust="spacing" textLength="58.2764" x="255.3662" y="442.8857">U+26A0</text><line style="stroke:#000000;stroke-width:1;" x1="250.3662" x2="250.3662" y1="427.8906" y2="448.1875"/><line style="stroke:#000000;stroke-width:1;" x1="133.5" x2="793.6035" y1="448.1875" y2="448.1875"/><text fill="#000000" font-family="sans-serif" font-size="14" font-weight="bold" lengthAdjust="spacing" textLength="64.3604" x="138.5" y="463.1826">purpose</text><text fill="#000000" font-family="sans-serif" font-size="14" lengthAdjust="spacing" textLength="533.2373" x="255.3662" y="463.1826">Highlights a potential issue or error that needs to be addressed or resolved.</text><line style="stroke:#000000;stroke-width:1;" x1="250.3662" x2="250.3662" y1="448.1875" y2="468.4844"/><rect fill="none" height="101.4844" rx="5" ry="5" style="stroke:#000000;stroke-width:1.5;" width="660.1035" x="133.5" y="367"/><rect fill="#F1F1F1" height="101.4844" rx="5" ry="5" style="stroke:#F1F1F1;stroke-width:1.5;" width="667.582" x="129.5" y="486"/><text fill="#000000" font-family="sans-serif" font-size="14" font-weight="bold" lengthAdjust="spacing" textLength="38.5615" x="134.5" y="500.9951">label</text><text fill="#000000" font-family="sans-serif" font-size="14" lengthAdjust="spacing" textLength="62.6172" x="251.3662" y="500.9951">Question</text><line style="stroke:#000000;stroke-width:1;" x1="246.3662" x2="246.3662" y1="486" y2="506.2969"/><line style="stroke:#000000;stroke-width:1;" x1="129.5" x2="797.082" y1="506.2969" y2="506.2969"/><text fill="#000000" font-family="sans-serif" font-size="14" font-weight="bold" lengthAdjust="spacing" textLength="43.2988" x="134.5" y="521.292">emoji</text><text fill="#000000" font-family="sans-serif" font-size="14" lengthAdjust="spacing" textLength="8.4014" x="251.3662" y="521.292">&#10067;</text><line style="stroke:#000000;stroke-width:1;" x1="246.3662" x2="246.3662" y1="506.2969" y2="526.5938"/><line style="stroke:#000000;stroke-width:1;" x1="129.5" x2="797.082" y1="526.5938" y2="526.5938"/><text fill="#000000" font-family="sans-serif" font-size="14" font-weight="bold" lengthAdjust="spacing" textLength="88.5459" x="134.5" y="541.5889">emojiName</text><text fill="#000000" font-family="sans-serif" font-size="14" lengthAdjust="spacing" textLength="60.4844" x="251.3662" y="541.5889">question</text><line style="stroke:#000000;stroke-width:1;" x1="246.3662" x2="246.3662" y1="526.5938" y2="546.8906"/><line style="stroke:#000000;stroke-width:1;" x1="129.5" x2="797.082" y1="546.8906" y2="546.8906"/><text fill="#000000" font-family="sans-serif" font-size="14" font-weight="bold" lengthAdjust="spacing" textLength="106.8662" x="134.5" y="561.8857">emojiUnicode</text><text fill="#000000" font-family="sans-serif" font-size="14" lengthAdjust="spacing" textLength="57.6064" x="251.3662" y="561.8857">U+2753</text><line style="stroke:#000000;stroke-width:1;" x1="246.3662" x2="246.3662" y1="546.8906" y2="567.1875"/><line style="stroke:#000000;stroke-width:1;" x1="129.5" x2="797.082" y1="567.1875" y2="567.1875"/><text fill="#000000" font-family="sans-serif" font-size="14" font-weight="bold" lengthAdjust="spacing" textLength="64.3604" x="134.5" y="582.1826">purpose</text><text fill="#000000" font-family="sans-serif" font-size="14" lengthAdjust="spacing" textLength="540.7158" x="251.3662" y="582.1826">Raises a question or seeks further clarification about the annotated element.</text><line style="stroke:#000000;stroke-width:1;" x1="246.3662" x2="246.3662" y1="567.1875" y2="587.4844"/><rect fill="none" height="101.4844" rx="5" ry="5" style="stroke:#000000;stroke-width:1.5;" width="667.582" x="129.5" y="486"/><rect fill="#F1F1F1" height="101.4844" rx="5" ry="5" style="stroke:#F1F1F1;stroke-width:1.5;" width="787.1563" x="70" y="605"/><text fill="#000000" font-family="sans-serif" font-size="14" font-weight="bold" lengthAdjust="spacing" textLength="38.5615" x="75" y="619.9951">label</text><text fill="#000000" font-family="sans-serif" font-size="14" lengthAdjust="spacing" textLength="78.2578" x="191.8662" y="619.9951">Suggestion</text><line style="stroke:#000000;stroke-width:1;" x1="186.8662" x2="186.8662" y1="605" y2="625.2969"/><line style="stroke:#000000;stroke-width:1;" x1="70" x2="857.1563" y1="625.2969" y2="625.2969"/><text fill="#000000" font-family="sans-serif" font-size="14" font-weight="bold" lengthAdjust="spacing" textLength="43.2988" x="75" y="640.292">emoji</text><text fill="#000000" font-family="sans-serif" font-size="14" lengthAdjust="spacing" textLength="8.4014" x="191.8662" y="640.292">&#128161;</text><line style="stroke:#000000;stroke-width:1;" x1="186.8662" x2="186.8662" y1="625.2969" y2="645.5938"/><line style="stroke:#000000;stroke-width:1;" x1="70" x2="857.1563" y1="645.5938" y2="645.5938"/><text fill="#000000" font-family="sans-serif" font-size="14" font-weight="bold" lengthAdjust="spacing" textLength="88.5459" x="75" y="660.5889">emojiName</text><text fill="#000000" font-family="sans-serif" font-size="14" lengthAdjust="spacing" textLength="30.5361" x="191.8662" y="660.5889">bulb</text><line style="stroke:#000000;stroke-width:1;" x1="186.8662" x2="186.8662" y1="645.5938" y2="665.8906"/><line style="stroke:#000000;stroke-width:1;" x1="70" x2="857.1563" y1="665.8906" y2="665.8906"/><text fill="#000000" font-family="sans-serif" font-size="14" font-weight="bold" lengthAdjust="spacing" textLength="106.8662" x="75" y="680.8857">emojiUnicode</text><text fill="#000000" font-family="sans-serif" font-size="14" lengthAdjust="spacing" textLength="66.3291" x="191.8662" y="680.8857">U+1F4A1</text><line style="stroke:#000000;stroke-width:1;" x1="186.8662" x2="186.8662" y1="665.8906" y2="686.1875"/><line style="stroke:#000000;stroke-width:1;" x1="70" x2="857.1563" y1="686.1875" y2="686.1875"/><text fill="#000000" font-family="sans-serif" font-size="14" font-weight="bold" lengthAdjust="spacing" textLength="64.3604" x="75" y="701.1826">purpose</text><text fill="#000000" font-family="sans-serif" font-size="14" lengthAdjust="spacing" textLength="660.29" x="191.8662" y="701.1826">Provides a suggestion or recommendation for improving the model or the annotated element.</text><line style="stroke:#000000;stroke-width:1;" x1="186.8662" x2="186.8662" y1="686.1875" y2="706.4844"/><rect fill="none" height="101.4844" rx="5" ry="5" style="stroke:#000000;stroke-width:1.5;" width="787.1563" x="70" y="605"/><rect fill="#F1F1F1" height="101.4844" rx="5" ry="5" style="stroke:#F1F1F1;stroke-width:1.5;" width="649.9521" x="138.5" y="724"/><text fill="#000000" font-family="sans-serif" font-size="14" font-weight="bold" lengthAdjust="spacing" textLength="38.5615" x="143.5" y="738.9951">label</text><text fill="#000000" font-family="sans-serif" font-size="14" lengthAdjust="spacing" textLength="26.4961" x="260.3662" y="738.9951">Info</text><line style="stroke:#000000;stroke-width:1;" x1="255.3662" x2="255.3662" y1="724" y2="744.2969"/><line style="stroke:#000000;stroke-width:1;" x1="138.5" x2="788.4521" y1="744.2969" y2="744.2969"/><text fill="#000000" font-family="sans-serif" font-size="14" font-weight="bold" lengthAdjust="spacing" textLength="43.2988" x="143.5" y="759.292">emoji</text><text fill="#000000" font-family="sans-serif" font-size="14" lengthAdjust="spacing" textLength="5.3184" x="260.3662" y="759.292">&#8505;&#65039;</text><line style="stroke:#000000;stroke-width:1;" x1="255.3662" x2="255.3662" y1="744.2969" y2="764.5938"/><line style="stroke:#000000;stroke-width:1;" x1="138.5" x2="788.4521" y1="764.5938" y2="764.5938"/><text fill="#000000" font-family="sans-serif" font-size="14" font-weight="bold" lengthAdjust="spacing" textLength="88.5459" x="143.5" y="779.5889">emojiName</text><text fill="#000000" font-family="sans-serif" font-size="14" lengthAdjust="spacing" textLength="134.8457" x="260.3662" y="779.5889">information_source</text><line style="stroke:#000000;stroke-width:1;" x1="255.3662" x2="255.3662" y1="764.5938" y2="784.8906"/><line style="stroke:#000000;stroke-width:1;" x1="138.5" x2="788.4521" y1="784.8906" y2="784.8906"/><text fill="#000000" font-family="sans-serif" font-size="14" font-weight="bold" lengthAdjust="spacing" textLength="106.8662" x="143.5" y="799.8857">emojiUnicode</text><text fill="#000000" font-family="sans-serif" font-size="14" lengthAdjust="spacing" textLength="57.6064" x="260.3662" y="799.8857">U+2139</text><line style="stroke:#000000;stroke-width:1;" x1="255.3662" x2="255.3662" y1="784.8906" y2="805.1875"/><line style="stroke:#000000;stroke-width:1;" x1="138.5" x2="788.4521" y1="805.1875" y2="805.1875"/><text fill="#000000" font-family="sans-serif" font-size="14" font-weight="bold" lengthAdjust="spacing" textLength="64.3604" x="143.5" y="820.1826">purpose</text><text fill="#000000" font-family="sans-serif" font-size="14" lengthAdjust="spacing" textLength="523.0859" x="260.3662" y="820.1826">Offers relevant information, facts, or details about the annotated element.</text><line style="stroke:#000000;stroke-width:1;" x1="255.3662" x2="255.3662" y1="805.1875" y2="825.4844"/><rect fill="none" height="101.4844" rx="5" ry="5" style="stroke:#000000;stroke-width:1.5;" width="649.9521" x="138.5" y="724"/><rect fill="#F1F1F1" height="101.4844" rx="5" ry="5" style="stroke:#F1F1F1;stroke-width:1.5;" width="738.4707" x="94.5" y="843"/><text fill="#000000" font-family="sans-serif" font-size="14" font-weight="bold" lengthAdjust="spacing" textLength="38.5615" x="99.5" y="857.9951">label</text><text fill="#000000" font-family="sans-serif" font-size="14" lengthAdjust="spacing" textLength="34.5693" x="216.3662" y="857.9951">Todo</text><line style="stroke:#000000;stroke-width:1;" x1="211.3662" x2="211.3662" y1="843" y2="863.2969"/><line style="stroke:#000000;stroke-width:1;" x1="94.5" x2="832.9707" y1="863.2969" y2="863.2969"/><text fill="#000000" font-family="sans-serif" font-size="14" font-weight="bold" lengthAdjust="spacing" textLength="43.2988" x="99.5" y="878.292">emoji</text><text fill="#000000" font-family="sans-serif" font-size="14" lengthAdjust="spacing" textLength="8.4014" x="216.3662" y="878.292">&#128204;</text><line style="stroke:#000000;stroke-width:1;" x1="211.3662" x2="211.3662" y1="863.2969" y2="883.5938"/><line style="stroke:#000000;stroke-width:1;" x1="94.5" x2="832.9707" y1="883.5938" y2="883.5938"/><text fill="#000000" font-family="sans-serif" font-size="14" font-weight="bold" lengthAdjust="spacing" textLength="88.5459" x="99.5" y="898.5889">emojiName</text><text fill="#000000" font-family="sans-serif" font-size="14" lengthAdjust="spacing" textLength="55.5762" x="216.3662" y="898.5889">pushpin</text><line style="stroke:#000000;stroke-width:1;" x1="211.3662" x2="211.3662" y1="883.5938" y2="903.8906"/><line style="stroke:#000000;stroke-width:1;" x1="94.5" x2="832.9707" y1="903.8906" y2="903.8906"/><text fill="#000000" font-family="sans-serif" font-size="14" font-weight="bold" lengthAdjust="spacing" textLength="106.8662" x="99.5" y="918.8857">emojiUnicode</text><text fill="#000000" font-family="sans-serif" font-size="14" lengthAdjust="spacing" textLength="67.3955" x="216.3662" y="918.8857">U+1F4CC</text><line style="stroke:#000000;stroke-width:1;" x1="211.3662" x2="211.3662" y1="903.8906" y2="924.1875"/><line style="stroke:#000000;stroke-width:1;" x1="94.5" x2="832.9707" y1="924.1875" y2="924.1875"/><text fill="#000000" font-family="sans-serif" font-size="14" font-weight="bold" lengthAdjust="spacing" textLength="64.3604" x="99.5" y="939.1826">purpose</text><text fill="#000000" font-family="sans-serif" font-size="14" lengthAdjust="spacing" textLength="611.6045" x="216.3662" y="939.1826">Indicates a pending task, action item, or future work related to the annotated element.</text><line style="stroke:#000000;stroke-width:1;" x1="211.3662" x2="211.3662" y1="924.1875" y2="944.4844"/><rect fill="none" height="101.4844" rx="5" ry="5" style="stroke:#000000;stroke-width:1.5;" width="738.4707" x="94.5" y="843"/><rect fill="#F1F1F1" height="101.4844" rx="5" ry="5" style="stroke:#F1F1F1;stroke-width:1.5;" width="621.8018" x="152.5" y="962"/><text fill="#000000" font-family="sans-serif" font-size="14" font-weight="bold" lengthAdjust="spacing" textLength="38.5615" x="157.5" y="976.9951">label</text><text fill="#000000" font-family="sans-serif" font-size="14" lengthAdjust="spacing" textLength="71.4355" x="274.3662" y="976.9951">Reference</text><line style="stroke:#000000;stroke-width:1;" x1="269.3662" x2="269.3662" y1="962" y2="982.2969"/><line style="stroke:#000000;stroke-width:1;" x1="152.5" x2="774.3018" y1="982.2969" y2="982.2969"/><text fill="#000000" font-family="sans-serif" font-size="14" font-weight="bold" lengthAdjust="spacing" textLength="43.2988" x="157.5" y="997.292">emoji</text><text fill="#000000" font-family="sans-serif" font-size="14" lengthAdjust="spacing" textLength="8.4014" x="274.3662" y="997.292">&#127760;</text><line style="stroke:#000000;stroke-width:1;" x1="269.3662" x2="269.3662" y1="982.2969" y2="1002.5938"/><line style="stroke:#000000;stroke-width:1;" x1="152.5" x2="774.3018" y1="1002.5938" y2="1002.5938"/><text fill="#000000" font-family="sans-serif" font-size="14" font-weight="bold" lengthAdjust="spacing" textLength="88.5459" x="157.5" y="1017.5889">emojiName</text><text fill="#000000" font-family="sans-serif" font-size="14" lengthAdjust="spacing" textLength="151.9629" x="274.3662" y="1017.5889">globe_with_meridians</text><line style="stroke:#000000;stroke-width:1;" x1="269.3662" x2="269.3662" y1="1002.5938" y2="1022.8906"/><line style="stroke:#000000;stroke-width:1;" x1="152.5" x2="774.3018" y1="1022.8906" y2="1022.8906"/><text fill="#000000" font-family="sans-serif" font-size="14" font-weight="bold" lengthAdjust="spacing" textLength="106.8662" x="157.5" y="1037.8857">emojiUnicode</text><text fill="#000000" font-family="sans-serif" font-size="14" lengthAdjust="spacing" textLength="65.6592" x="274.3662" y="1037.8857">U+1F310</text><line style="stroke:#000000;stroke-width:1;" x1="269.3662" x2="269.3662" y1="1022.8906" y2="1043.1875"/><line style="stroke:#000000;stroke-width:1;" x1="152.5" x2="774.3018" y1="1043.1875" y2="1043.1875"/><text fill="#000000" font-family="sans-serif" font-size="14" font-weight="bold" lengthAdjust="spacing" textLength="64.3604" x="157.5" y="1058.1826">purpose</text><text fill="#000000" font-family="sans-serif" font-size="14" lengthAdjust="spacing" textLength="494.9355" x="274.3662" y="1058.1826">Provides a reference or link to an external resource or documentation.</text><line style="stroke:#000000;stroke-width:1;" x1="269.3662" x2="269.3662" y1="1043.1875" y2="1063.4844"/><rect fill="none" height="101.4844" rx="5" ry="5" style="stroke:#000000;stroke-width:1.5;" width="621.8018" x="152.5" y="962"/><rect fill="#F1F1F1" height="101.4844" rx="5" ry="5" style="stroke:#F1F1F1;stroke-width:1.5;" width="646.1855" x="140.5" y="1081"/><text fill="#000000" font-family="sans-serif" font-size="14" font-weight="bold" lengthAdjust="spacing" textLength="38.5615" x="145.5" y="1095.9951">label</text><text fill="#000000" font-family="sans-serif" font-size="14" lengthAdjust="spacing" textLength="26.1133" x="262.3662" y="1095.9951">See</text><line style="stroke:#000000;stroke-width:1;" x1="257.3662" x2="257.3662" y1="1081" y2="1101.2969"/><line style="stroke:#000000;stroke-width:1;" x1="140.5" x2="786.6855" y1="1101.2969" y2="1101.2969"/><text fill="#000000" font-family="sans-serif" font-size="14" font-weight="bold" lengthAdjust="spacing" textLength="43.2988" x="145.5" y="1116.292">emoji</text><text fill="#000000" font-family="sans-serif" font-size="14" lengthAdjust="spacing" textLength="8.4014" x="262.3662" y="1116.292">&#128269;</text><line style="stroke:#000000;stroke-width:1;" x1="257.3662" x2="257.3662" y1="1101.2969" y2="1121.5938"/><line style="stroke:#000000;stroke-width:1;" x1="140.5" x2="786.6855" y1="1121.5938" y2="1121.5938"/><text fill="#000000" font-family="sans-serif" font-size="14" font-weight="bold" lengthAdjust="spacing" textLength="88.5459" x="145.5" y="1136.5889">emojiName</text><text fill="#000000" font-family="sans-serif" font-size="14" lengthAdjust="spacing" textLength="31.1035" x="262.3662" y="1136.5889">mag</text><line style="stroke:#000000;stroke-width:1;" x1="257.3662" x2="257.3662" y1="1121.5938" y2="1141.8906"/><line style="stroke:#000000;stroke-width:1;" x1="140.5" x2="786.6855" y1="1141.8906" y2="1141.8906"/><text fill="#000000" font-family="sans-serif" font-size="14" font-weight="bold" lengthAdjust="spacing" textLength="106.8662" x="145.5" y="1156.8857">emojiUnicode</text><text fill="#000000" font-family="sans-serif" font-size="14" lengthAdjust="spacing" textLength="67.5322" x="262.3662" y="1156.8857">U+1F50D</text><line style="stroke:#000000;stroke-width:1;" x1="257.3662" x2="257.3662" y1="1141.8906" y2="1162.1875"/><line style="stroke:#000000;stroke-width:1;" x1="140.5" x2="786.6855" y1="1162.1875" y2="1162.1875"/><text fill="#000000" font-family="sans-serif" font-size="14" font-weight="bold" lengthAdjust="spacing" textLength="64.3604" x="145.5" y="1177.1826">purpose</text><text fill="#000000" font-family="sans-serif" font-size="14" lengthAdjust="spacing" textLength="519.3193" x="262.3662" y="1177.1826">Indicates a cross-reference to another relevant element within the model.</text><line style="stroke:#000000;stroke-width:1;" x1="257.3662" x2="257.3662" y1="1162.1875" y2="1182.4844"/><rect fill="none" height="101.4844" rx="5" ry="5" style="stroke:#000000;stroke-width:1.5;" width="646.1855" x="140.5" y="1081"/><path d="M21,504.7422 L34,504.7422 C119.9288,504.7422 10.9572,182.1737 70,119.7422 C110.8023,76.5981 168.5912,55.7956 227.3327,47.1887" fill="none" style="stroke:#000000;stroke-width:1;stroke-dasharray:3.0,3.0;"/><path d="M227.748,50.2051 L229.5951,46.8772 L226.9175,44.1723 L234.8738,46.1505 L227.748,50.2051" fill="#000000"/><ellipse cx="21" cy="504.7422" fill="#000000" rx="3" ry="3" style="stroke:#000000;stroke-width:1;"/><path d="M21,524.7422 L34,524.7422 C98.0571,524.7422 25.247,284.5731 70,238.7422 C107.8652,199.965 159.4972,179.4303 212.8817,169.5939" fill="none" style="stroke:#000000;stroke-width:1;stroke-dasharray:3.0,3.0;"/><path d="M213.4088,172.6111 L215.1447,169.1986 L212.3546,166.5766 L220.4249,168.2761 L213.4088,172.6111" fill="#000000"/><ellipse cx="21" cy="524.7422" fill="#000000" rx="3" ry="3" style="stroke:#000000;stroke-width:1;"/><path d="M21,544.7422 L34,544.7422 C118.6372,544.7422 8.9332,416.3451 70,357.7422 C77.3386,350.6996 85.1353,344.2726 93.313,338.4134" fill="none" style="stroke:#000000;stroke-width:1;stroke-dasharray:3.0,3.0;"/><path d="M95.0613,340.944 L95.211,337.1022 L91.5648,335.8828 L99.6395,334.0428 L95.0613,340.944" fill="#000000"/><ellipse cx="21" cy="544.7422" fill="#000000" rx="3" ry="3" style="stroke:#000000;stroke-width:1;"/><path d="M21,565.7422 L34,565.7422 C76.669,565.7422 36.4947,503.1626 70,476.7422 C87.401,463.0207 106.622,451.8136 126.9324,442.7059" fill="none" style="stroke:#000000;stroke-width:1;stroke-dasharray:3.0,3.0;"/><path d="M128.1359,445.4774 L129.0109,441.8033 L125.7289,439.9345 L133.8609,439.6971 L128.1359,445.4774" fill="#000000"/><ellipse cx="21" cy="565.7422" fill="#000000" rx="3" ry="3" style="stroke:#000000;stroke-width:1;"/><path d="M21,585.7422 L34,585.7422 C62.7657,585.7422 92.5468,584.6412 122.3924,582.7694" fill="none" style="stroke:#000000;stroke-width:1;stroke-dasharray:3.0,3.0;"/><path d="M122.5893,585.8049 L124.669,582.6217 L122.1955,579.7339 L129.9811,582.2771 L122.5893,585.8049" fill="#000000"/><ellipse cx="21" cy="585.7422" fill="#000000" rx="3" ry="3" style="stroke:#000000;stroke-width:1;"/><path d="M21,605.7422 L34,605.7422 C43.4666,605.7422 53.0429,605.8638 62.6951,606.095" fill="none" style="stroke:#000000;stroke-width:1;stroke-dasharray:3.0,3.0;"/><path d="M62.6116,609.1976 L65.022,606.1576 L62.7785,602.9924 L70.4515,606.3037 L62.6116,609.1976" fill="#000000"/><ellipse cx="21" cy="605.7422" fill="#000000" rx="3" ry="3" style="stroke:#000000;stroke-width:1;"/><path d="M21,625.7422 L34,625.7422 C77.0813,625.7422 36.2226,689.001 70,715.7422 C88.6703,730.5232 109.4498,742.391 131.4305,751.8625" fill="none" style="stroke:#000000;stroke-width:1;stroke-dasharray:3.0,3.0;"/><path d="M130.2338,754.7336 L133.5838,752.76 L132.6271,748.9915 L138.6081,754.8542 L130.2338,754.7336" fill="#000000"/><ellipse cx="21" cy="625.7422" fill="#000000" rx="3" ry="3" style="stroke:#000000;stroke-width:1;"/><path d="M21,646.7422 L34,646.7422 C119.0737,646.7422 8.6474,775.8068 70,834.7422 C75.9999,840.5057 82.3066,845.8572 88.8777,850.8226" fill="none" style="stroke:#000000;stroke-width:1;stroke-dasharray:3.0,3.0;"/><path d="M87.0968,853.2658 L90.7101,852.1583 L90.6587,848.3794 L94.9856,855.2749 L87.0968,853.2658" fill="#000000"/><ellipse cx="21" cy="646.7422" fill="#000000" rx="3" ry="3" style="stroke:#000000;stroke-width:1;"/><path d="M21,666.7422 L34,666.7422 C98.2776,666.7422 25.1029,907.7438 70,953.7422 C91.4357,975.7037 117.287,991.8147 145.3723,1003.4453" fill="none" style="stroke:#000000;stroke-width:1;stroke-dasharray:3.0,3.0;"/><path d="M144.2278,1006.3201 L147.5284,1004.3036 L146.5168,1000.5704 L152.5594,1006.3065 L144.2278,1006.3201" fill="#000000"/><ellipse cx="21" cy="666.7422" fill="#000000" rx="3" ry="3" style="stroke:#000000;stroke-width:1;"/><path d="M21,686.7422 L34,686.7422 C120.15,686.7422 10.8127,1010.1428 70,1072.7422 C88.3353,1092.1345 110.1024,1107.0135 133.8455,1118.3003" fill="none" style="stroke:#000000;stroke-width:1;stroke-dasharray:3.0,3.0;"/><path d="M132.5501,1121.1354 L135.9717,1119.2718 L135.1408,1115.4653 L140.933,1121.5387 L132.5501,1121.1354" fill="#000000"/><ellipse cx="21" cy="686.7422" fill="#000000" rx="3" ry="3" style="stroke:#000000;stroke-width:1;"/><!--SRC=[jPNTJjH05CVl-nIJlOAua2qBY5o1B2Z8by3YXJ6RQNlQ7NOwK-TZ5sEyynAZ4I-CYK7VGb_75v17y4mN5hUb21ScssHxvkjt_kS_fqlQK6MEj1IUzznxxTKu3O3N5abjLIcfQdMl1gayOYxow-l9w7sRfk1YeP9QTrAgUgEXjc2XZFBHzhsP-xChRYIpAfCw3wwBY8NKW2QKX8ePVE44t6a4Vp5bt2eWJ13J1PBYJdowvhsfZy4zeqemaOpZVVds-yVx4k6WC7KSRtwvSGDU9Wq8mv2FQMt1yLrizm- -RLmu1dT-TlgvX1Pm2vr0oWhj_BNPraA1RbV9FeiSN1IXT58WMoY5WMDJ9t2SSIge2-kwWmqvLInswRWGYJ7aeAaGqc2A4G4EAMPOJc3TvVi_v7tCaYx7nrJeEpI2wL93142aYP4a09Uk0gqH6KVnd-HzYChOJorebsl1jwSbx9V5YGNNpZKBt7kKwTmJboiTY0ReeQnMeQe5jGaDf3MtbNlV9iarvETd7x-NNMDvK6cOPR_IC4IF3XcA6CeKQQ8XhlC6IpCt6zqziZQvWsL4BCTrV_lpEiSmdAVI_DIEbbQ5K544l_cWaCnE78FIYCwXJuKXVsrLnyuHcg7j8p3OHVJTId0W8rcyikL-brdTpPYer7_bfcwNeTgvkbJtwWHndV3CG9fJnzQunZUGgkSop6dH_BV4tmEK1aHOR3id7qev95m6q1amq-sae5Z4gD1L2JNzHhMXrEMP3fypqNEyL60VCg1SPt8NrHKuBueChKFFgtND3O0Y-QTt9VAK9bMWSutMZTyP_4nDNV7cd3A_jICpNKXBd335xkwzy9QmUCFlv2usMTFUsYHzDACheJyzqvYPcsu6w3lVdsYBdf03WNqvpHZ7mrWAazx4ezrDSY57nBHHBB1EYablW_OfsRF2pLiaE-YIZTQJom1P5Nscf71etiRXrjM4-TcfXyoGVL38GGwtl1R4r7A3Ar0OzDaYQH-iJIrucrGabYQuDmXlHUA-wXMExVy1]--></g></svg>