<svg xmlns="http://www.w3.org/2000/svg" xmlns:xlink="http://www.w3.org/1999/xlink" contentStyleType="text/css" data-diagram-type="CLASS" height="179px" preserveAspectRatio="none" style="width:797px;height:179px;background:#FFFFFF;" version="1.1" viewBox="0 0 797 179" width="797px" zoomAndPan="magnify"><defs/><g><!--cluster Component--><g class="cluster" data-entity="Component" data-source-line="44" data-uid="ent0002" id="cluster_Component"><path d="M8.5,44 L99.7412,44 A3.75,3.75 0 0 1 102.2412,46.5 L109.2412,66.2969 L787.5,66.2969 A2.5,2.5 0 0 1 790,68.7969 L790,170.47 A2.5,2.5 0 0 1 787.5,172.97 L8.5,172.97 A2.5,2.5 0 0 1 6,170.47 L6,46.5 A2.5,2.5 0 0 1 8.5,44" fill="#E6F2FF" style="stroke:#000000;stroke-width:1.5;"/><line style="stroke:#000000;stroke-width:1.5;" x1="6" x2="109.2412" y1="66.2969" y2="66.2969"/><text fill="#333333" font-family="sans-serif" font-size="14" font-weight="bold" lengthAdjust="spacing" textLength="90.2412" x="10" y="58.9951">Component</text><text fill="#333333" font-family="sans-serif" font-size="14" font-style="italic" lengthAdjust="spacing" textLength="83.4668" x="360.2666" y="81.292">&#171;container&#187;</text></g><!--class Literate--><g class="entity" data-entity="Literate" data-source-line="45" data-uid="ent0003" id="entity_Literate"><rect fill="#FFFFEE" height="61.9688" rx="2.5" ry="2.5" style="stroke:#181818;stroke-width:0.5;" width="138.9316" x="635.53" y="95"/><ellipse cx="677.7321" cy="111" fill="#ADD1B2" rx="11" ry="11" style="stroke:#181818;stroke-width:1;"/><path d="M680.7009,116.6406 Q680.1228,116.9375 679.4821,117.0781 Q678.8415,117.2344 678.1384,117.2344 Q675.6384,117.2344 674.3103,115.5938 Q672.9978,113.9375 672.9978,110.8125 Q672.9978,107.6875 674.3103,106.0313 Q675.6384,104.375 678.1384,104.375 Q678.8415,104.375 679.4821,104.5313 Q680.1384,104.6875 680.7009,104.9844 L680.7009,107.7031 Q680.0759,107.125 679.4821,106.8594 Q678.8884,106.5781 678.2634,106.5781 Q676.9196,106.5781 676.2321,107.6563 Q675.5446,108.7188 675.5446,110.8125 Q675.5446,112.9063 676.2321,113.9844 Q676.9196,115.0469 678.2634,115.0469 Q678.8884,115.0469 679.4821,114.7813 Q680.0759,114.5 680.7009,113.9219 L680.7009,116.6406 Z " fill="#000000"/><text fill="#333333" font-family="sans-serif" font-size="12" lengthAdjust="spacing" textLength="46.4824" x="697.7771" y="115.1543">Literate</text><line style="stroke:#181818;stroke-width:0.5;" x1="636.53" x2="773.4616" y1="127" y2="127"/><text fill="#333333" font-family="sans-serif" font-size="12" lengthAdjust="spacing" textLength="126.9316" x="641.53" y="142.1387">Core implementation</text><line style="stroke:#181818;stroke-width:0.5;" x1="636.53" x2="773.4616" y1="148.9688" y2="148.9688"/></g><!--class Subject--><g class="entity" data-entity="Subject" data-source-line="49" data-uid="ent0004" id="entity_Subject"><rect fill="#FFFFEE" height="61.9688" rx="2.5" ry="2.5" style="stroke:#181818;stroke-width:0.5;" width="97.2129" x="22.39" y="95"/><ellipse cx="46.5491" cy="111" fill="#ADD1B2" rx="11" ry="11" style="stroke:#181818;stroke-width:1;"/><path d="M49.5178,116.6406 Q48.9397,116.9375 48.2991,117.0781 Q47.6585,117.2344 46.9553,117.2344 Q44.4553,117.2344 43.1272,115.5938 Q41.8147,113.9375 41.8147,110.8125 Q41.8147,107.6875 43.1272,106.0313 Q44.4553,104.375 46.9553,104.375 Q47.6585,104.375 48.2991,104.5313 Q48.9553,104.6875 49.5178,104.9844 L49.5178,107.7031 Q48.8928,107.125 48.2991,106.8594 Q47.7053,106.5781 47.0803,106.5781 Q45.7366,106.5781 45.0491,107.6563 Q44.3616,108.7188 44.3616,110.8125 Q44.3616,112.9063 45.0491,113.9844 Q45.7366,115.0469 47.0803,115.0469 Q47.7053,115.0469 48.2991,114.7813 Q48.8928,114.5 49.5178,113.9219 L49.5178,116.6406 Z " fill="#000000"/><text fill="#333333" font-family="sans-serif" font-size="12" lengthAdjust="spacing" textLength="44.8594" x="62.5844" y="115.1543">Subject</text><line style="stroke:#181818;stroke-width:0.5;" x1="23.39" x2="118.6029" y1="127" y2="127"/><text fill="#333333" font-family="sans-serif" font-size="12" lengthAdjust="spacing" textLength="85.2129" x="28.39" y="142.1387">Domain entity</text><line style="stroke:#181818;stroke-width:0.5;" x1="23.39" x2="118.6029" y1="148.9688" y2="148.9688"/></g><!--class Class--><g class="entity" data-entity="Class" data-source-line="52" data-uid="ent0005" id="entity_Class"><rect fill="#FFFFEE" height="61.9688" rx="2.5" ry="2.5" style="stroke:#181818;stroke-width:0.5;" width="120.5449" x="154.73" y="95"/><ellipse cx="195.3686" cy="111" fill="#ADD1B2" rx="11" ry="11" style="stroke:#181818;stroke-width:1;"/><path d="M198.3373,116.6406 Q197.7592,116.9375 197.1186,117.0781 Q196.4779,117.2344 195.7748,117.2344 Q193.2748,117.2344 191.9467,115.5938 Q190.6342,113.9375 190.6342,110.8125 Q190.6342,107.6875 191.9467,106.0313 Q193.2748,104.375 195.7748,104.375 Q196.4779,104.375 197.1186,104.5313 Q197.7748,104.6875 198.3373,104.9844 L198.3373,107.7031 Q197.7123,107.125 197.1186,106.8594 Q196.5248,106.5781 195.8998,106.5781 Q194.5561,106.5781 193.8686,107.6563 Q193.1811,108.7188 193.1811,110.8125 Q193.1811,112.9063 193.8686,113.9844 Q194.5561,115.0469 195.8998,115.0469 Q196.5248,115.0469 197.1186,114.7813 Q197.7123,114.5 198.3373,113.9219 L198.3373,116.6406 Z " fill="#000000"/><text fill="#333333" font-family="sans-serif" font-size="12" lengthAdjust="spacing" textLength="31.5703" x="215.066" y="115.1543">Class</text><line style="stroke:#181818;stroke-width:0.5;" x1="155.73" x2="274.2749" y1="127" y2="127"/><text fill="#333333" font-family="sans-serif" font-size="12" lengthAdjust="spacing" textLength="108.5449" x="160.73" y="142.1387">Schema definition</text><line style="stroke:#181818;stroke-width:0.5;" x1="155.73" x2="274.2749" y1="148.9688" y2="148.9688"/></g><!--class AttributeSection--><g class="entity" data-entity="AttributeSection" data-source-line="55" data-uid="ent0006" id="entity_AttributeSection"><rect fill="#FFFFEE" height="61.9688" rx="2.5" ry="2.5" style="stroke:#181818;stroke-width:0.5;" width="129.7813" x="310.11" y="95"/><ellipse cx="325.11" cy="111" fill="#ADD1B2" rx="11" ry="11" style="stroke:#181818;stroke-width:1;"/><path d="M328.0788,116.6406 Q327.5006,116.9375 326.86,117.0781 Q326.2194,117.2344 325.5163,117.2344 Q323.0163,117.2344 321.6881,115.5938 Q320.3756,113.9375 320.3756,110.8125 Q320.3756,107.6875 321.6881,106.0313 Q323.0163,104.375 325.5163,104.375 Q326.2194,104.375 326.86,104.5313 Q327.5163,104.6875 328.0788,104.9844 L328.0788,107.7031 Q327.4538,107.125 326.86,106.8594 Q326.2663,106.5781 325.6413,106.5781 Q324.2975,106.5781 323.61,107.6563 Q322.9225,108.7188 322.9225,110.8125 Q322.9225,112.9063 323.61,113.9844 Q324.2975,115.0469 325.6413,115.0469 Q326.2663,115.0469 326.86,114.7813 Q327.4538,114.5 328.0788,113.9219 L328.0788,116.6406 Z " fill="#000000"/><text fill="#333333" font-family="sans-serif" font-size="12" lengthAdjust="spacing" textLength="97.7813" x="339.11" y="115.1543">AttributeSection</text><line style="stroke:#181818;stroke-width:0.5;" x1="311.11" x2="438.8913" y1="127" y2="127"/><text fill="#333333" font-family="sans-serif" font-size="12" lengthAdjust="spacing" textLength="90.1816" x="316.11" y="142.1387">Property group</text><line style="stroke:#181818;stroke-width:0.5;" x1="311.11" x2="438.8913" y1="148.9688" y2="148.9688"/></g><!--class Attribute--><g class="entity" data-entity="Attribute" data-source-line="58" data-uid="ent0007" id="entity_Attribute"><rect fill="#FFFFEE" height="61.9688" rx="2.5" ry="2.5" style="stroke:#181818;stroke-width:0.5;" width="125.8887" x="475.06" y="95"/><ellipse cx="508.3711" cy="111" fill="#ADD1B2" rx="11" ry="11" style="stroke:#181818;stroke-width:1;"/><path d="M511.3399,116.6406 Q510.7618,116.9375 510.1211,117.0781 Q509.4805,117.2344 508.7774,117.2344 Q506.2774,117.2344 504.9493,115.5938 Q503.6368,113.9375 503.6368,110.8125 Q503.6368,107.6875 504.9493,106.0313 Q506.2774,104.375 508.7774,104.375 Q509.4805,104.375 510.1211,104.5313 Q510.7774,104.6875 511.3399,104.9844 L511.3399,107.7031 Q510.7149,107.125 510.1211,106.8594 Q509.5274,106.5781 508.9024,106.5781 Q507.5586,106.5781 506.8711,107.6563 Q506.1836,108.7188 506.1836,110.8125 Q506.1836,112.9063 506.8711,113.9844 Q507.5586,115.0469 508.9024,115.0469 Q509.5274,115.0469 510.1211,114.7813 Q510.7149,114.5 511.3399,113.9219 L511.3399,116.6406 Z " fill="#000000"/><text fill="#333333" font-family="sans-serif" font-size="12" lengthAdjust="spacing" textLength="53.1973" x="526.4403" y="115.1543">Attribute</text><line style="stroke:#181818;stroke-width:0.5;" x1="476.06" x2="599.9487" y1="127" y2="127"/><text fill="#333333" font-family="sans-serif" font-size="12" lengthAdjust="spacing" textLength="113.8887" x="481.06" y="142.1387">Individual property</text><line style="stroke:#181818;stroke-width:0.5;" x1="476.06" x2="599.9487" y1="148.9688" y2="148.9688"/></g><!--link Subject to Literate--><g class="link" data-entity-1="Subject" data-entity-2="Literate" data-source-line="63" data-uid="lnk8" id="link_Subject_Literate"><path codeLine="63" d="M92.72,94.77 C117.46,59.22 154.5,6 154.5,6 C154.5,6 600.5,6 600.5,6 C600.5,6 642.9088,54.696 673.8788,90.246" fill="none" id="Subject-to-Literate" style="stroke:#181818;stroke-width:1;"/><polygon fill="#181818" points="677.82,94.77,674.9242,85.3565,674.5357,91,668.8922,90.6114,677.82,94.77" style="stroke:#181818;stroke-width:1;"/></g><!--link Class to Literate--><g class="link" data-entity-1="Class" data-entity-2="Literate" data-source-line="64" data-uid="lnk9" id="link_Class_Literate"><path codeLine="64" d="M239.84,94.77 C268.14,59.22 310.5,6 310.5,6 C310.5,6 600.5,6 600.5,6 C600.5,6 642.9088,54.696 673.8788,90.246" fill="none" id="Class-to-Literate" style="stroke:#181818;stroke-width:1;"/><polygon fill="#181818" points="677.82,94.77,674.9242,85.3565,674.5357,91,668.8922,90.6114,677.82,94.77" style="stroke:#181818;stroke-width:1;"/></g><!--link AttributeSection to Literate--><g class="link" data-entity-1="AttributeSection" data-entity-2="Literate" data-source-line="65" data-uid="lnk10" id="link_AttributeSection_Literate"><path codeLine="65" d="M401.14,94.77 C430.92,59.22 475.5,6 475.5,6 C475.5,6 600.5,6 600.5,6 C600.5,6 642.9088,54.696 673.8788,90.246" fill="none" id="AttributeSection-to-Literate" style="stroke:#181818;stroke-width:1;"/><polygon fill="#181818" points="677.82,94.77,674.9242,85.3565,674.5357,91,668.8922,90.6114,677.82,94.77" style="stroke:#181818;stroke-width:1;"/></g><!--link Attribute to Literate--><g class="link" data-entity-1="Attribute" data-entity-2="Literate" data-source-line="66" data-uid="lnk11" id="link_Attribute_Literate"><path codeLine="66" d="M601.41,125.99 C610.13,125.99 618.49,125.99 629.22,125.99" fill="none" id="Attribute-to-Literate" style="stroke:#181818;stroke-width:1;"/><polygon fill="#181818" points="635.22,125.99,626.22,121.99,630.22,125.99,626.22,129.99,635.22,125.99" style="stroke:#181818;stroke-width:1;"/></g><!--SRC=[hPB1Rjim38RlUWgYEmGei6PjiM1jWW2j5my3TYZgle1YCxOMMnGaUe4NzDr7ExQH9ZdEnv__Jt-aE868xCRajKVW0g6Y3Bs5m4s9e9tpfDC2TeOBY994JU3DD-2eR4fZ4OmDZ3e3sW1vBaY5hR5EUrr1M-V6uMXMQj5rNQhfDVmeQQrB2CXiR1xWUgeoe_Csk5ThdMvpJxND8Yh9FyAkC8npzQxQQ5Jg43f0IRR1j1FswlaqzYcMRxMQgsVoCjMWtdVVeBuL9jrQ3E4HRWVjLMUc5k7RNCLa-JJOQedvYvAu6wYUlAVTCPNkXBqw3H__x-Rh47yHTftZSGFNIvS6MytYkpW-7smsUtYuCDZzvJdwVTQ1gUfVV4DU3g9oPD5oIt6JIb3By_d_1F9nmxTVMep5jB-CSUYh4U8A5ekHORaKYiDx_vAJy9gnMx4ShwbSYPK4D1koxMm7NrAlVsFAOljEbJG1iHXkn72eH_tr96c1bOOCDyQQliN1ySJipRfcJAIF5CJyuicXvmRQRRXpfrX-sipyCLajL-vwTmirWLSiEyHG61VKWFTvEKwa3aZ7oXd2nU87zVqV]--></g></svg>