<svg xmlns="http://www.w3.org/2000/svg" xmlns:xlink="http://www.w3.org/1999/xlink" contentStyleType="text/css" data-diagram-type="JSON" height="298px" preserveAspectRatio="none" style="width:625px;height:298px;background:#FFFFFF;" version="1.1" viewBox="0 0 625 298" width="625px" zoomAndPan="magnify"><defs/><g><rect fill="#F1F1F1" height="20.2969" rx="5" ry="5" style="stroke:#F1F1F1;stroke-width:1.5;" width="123.5918" x="10" y="138.3516"/><text fill="#000000" font-family="sans-serif" font-size="14" font-weight="bold" lengthAdjust="spacing" textLength="90.2412" x="15" y="153.3467">Component</text><text fill="#000000" font-family="sans-serif" font-size="14" lengthAdjust="spacing" textLength="13.3506" x="115.2412" y="153.3467">&#160;&#160;&#160;</text><line style="stroke:#000000;stroke-width:1;" x1="110.2412" x2="110.2412" y1="138.3516" y2="158.6484"/><rect fill="none" height="20.2969" rx="5" ry="5" style="stroke:#000000;stroke-width:1.5;" width="123.5918" x="10" y="138.3516"/><rect fill="#F1F1F1" height="101.4844" rx="5" ry="5" style="stroke:#F1F1F1;stroke-width:1.5;" width="164.4023" x="171" y="97.7578"/><text fill="#000000" font-family="sans-serif" font-size="14" font-weight="bold" lengthAdjust="spacing" textLength="62.4463" x="176" y="112.7529">Literate</text><text fill="#000000" font-family="sans-serif" font-size="14" lengthAdjust="spacing" textLength="13.3506" x="317.0518" y="112.7529">&#160;&#160;&#160;</text><line style="stroke:#000000;stroke-width:1;" x1="312.0518" x2="312.0518" y1="97.7578" y2="118.0547"/><line style="stroke:#000000;stroke-width:1;" x1="171" x2="335.4023" y1="118.0547" y2="118.0547"/><text fill="#000000" font-family="sans-serif" font-size="14" font-weight="bold" lengthAdjust="spacing" textLength="59.3564" x="176" y="133.0498">Subject</text><text fill="#000000" font-family="sans-serif" font-size="14" lengthAdjust="spacing" textLength="13.3506" x="317.0518" y="133.0498">&#160;&#160;&#160;</text><line style="stroke:#000000;stroke-width:1;" x1="312.0518" x2="312.0518" y1="118.0547" y2="138.3516"/><line style="stroke:#000000;stroke-width:1;" x1="171" x2="335.4023" y1="138.3516" y2="138.3516"/><text fill="#000000" font-family="sans-serif" font-size="14" font-weight="bold" lengthAdjust="spacing" textLength="41.1865" x="176" y="153.3467">Class</text><text fill="#000000" font-family="sans-serif" font-size="14" lengthAdjust="spacing" textLength="13.3506" x="317.0518" y="153.3467">&#160;&#160;&#160;</text><line style="stroke:#000000;stroke-width:1;" x1="312.0518" x2="312.0518" y1="138.3516" y2="158.6484"/><line style="stroke:#000000;stroke-width:1;" x1="171" x2="335.4023" y1="158.6484" y2="158.6484"/><text fill="#000000" font-family="sans-serif" font-size="14" font-weight="bold" lengthAdjust="spacing" textLength="131.0518" x="176" y="173.6436">AttributeSection</text><text fill="#000000" font-family="sans-serif" font-size="14" lengthAdjust="spacing" textLength="13.3506" x="317.0518" y="173.6436">&#160;&#160;&#160;</text><line style="stroke:#000000;stroke-width:1;" x1="312.0518" x2="312.0518" y1="158.6484" y2="178.9453"/><line style="stroke:#000000;stroke-width:1;" x1="171" x2="335.4023" y1="178.9453" y2="178.9453"/><text fill="#000000" font-family="sans-serif" font-size="14" font-weight="bold" lengthAdjust="spacing" textLength="72.0986" x="176" y="193.9404">Attribute</text><text fill="#000000" font-family="sans-serif" font-size="14" lengthAdjust="spacing" textLength="13.3506" x="317.0518" y="193.9404">&#160;&#160;&#160;</text><line style="stroke:#000000;stroke-width:1;" x1="312.0518" x2="312.0518" y1="178.9453" y2="199.2422"/><rect fill="none" height="101.4844" rx="5" ry="5" style="stroke:#000000;stroke-width:1.5;" width="164.4023" x="171" y="97.7578"/><rect fill="#F1F1F1" height="40.5938" rx="5" ry="5" style="stroke:#F1F1F1;stroke-width:1.5;" width="158.0869" x="414" y="10"/><text fill="#000000" font-family="sans-serif" font-size="14" lengthAdjust="spacing" textLength="77.8408" x="419" y="24.9951">description</text><line style="stroke:#000000;stroke-width:1;" x1="414" x2="572.0869" y1="30.2969" y2="30.2969"/><text fill="#000000" font-family="sans-serif" font-size="14" lengthAdjust="spacing" textLength="148.0869" x="419" y="45.292">Core implementation</text><rect fill="none" height="40.5938" rx="5" ry="5" style="stroke:#000000;stroke-width:1.5;" width="158.0869" x="414" y="10"/><rect fill="#F1F1F1" height="40.5938" rx="5" ry="5" style="stroke:#F1F1F1;stroke-width:1.5;" width="208.3643" x="389" y="69"/><text fill="#000000" font-family="sans-serif" font-size="14" font-weight="bold" lengthAdjust="spacing" textLength="88.9492" x="394" y="83.9951">description</text><text fill="#000000" font-family="sans-serif" font-size="14" lengthAdjust="spacing" textLength="99.415" x="492.9492" y="83.9951">Domain entity</text><line style="stroke:#000000;stroke-width:1;" x1="487.9492" x2="487.9492" y1="69" y2="89.2969"/><line style="stroke:#000000;stroke-width:1;" x1="389" x2="597.3643" y1="89.2969" y2="89.2969"/><text fill="#000000" font-family="sans-serif" font-size="14" font-weight="bold" lengthAdjust="spacing" textLength="63.0342" x="394" y="104.292">extends</text><text fill="#000000" font-family="sans-serif" font-size="14" lengthAdjust="spacing" textLength="54.2295" x="492.9492" y="104.292">Literate</text><line style="stroke:#000000;stroke-width:1;" x1="487.9492" x2="487.9492" y1="89.2969" y2="109.5938"/><rect fill="none" height="40.5938" rx="5" ry="5" style="stroke:#000000;stroke-width:1.5;" width="208.3643" x="389" y="69"/><rect fill="#F1F1F1" height="40.5938" rx="5" ry="5" style="stroke:#F1F1F1;stroke-width:1.5;" width="235.585" x="375" y="128"/><text fill="#000000" font-family="sans-serif" font-size="14" font-weight="bold" lengthAdjust="spacing" textLength="88.9492" x="380" y="142.9951">description</text><text fill="#000000" font-family="sans-serif" font-size="14" lengthAdjust="spacing" textLength="126.6357" x="478.9492" y="142.9951">Schema definition</text><line style="stroke:#000000;stroke-width:1;" x1="473.9492" x2="473.9492" y1="128" y2="148.2969"/><line style="stroke:#000000;stroke-width:1;" x1="375" x2="610.585" y1="148.2969" y2="148.2969"/><text fill="#000000" font-family="sans-serif" font-size="14" font-weight="bold" lengthAdjust="spacing" textLength="63.0342" x="380" y="163.292">extends</text><text fill="#000000" font-family="sans-serif" font-size="14" lengthAdjust="spacing" textLength="54.2295" x="478.9492" y="163.292">Literate</text><line style="stroke:#000000;stroke-width:1;" x1="473.9492" x2="473.9492" y1="148.2969" y2="168.5938"/><rect fill="none" height="40.5938" rx="5" ry="5" style="stroke:#000000;stroke-width:1.5;" width="235.585" x="375" y="128"/><rect fill="#F1F1F1" height="40.5938" rx="5" ry="5" style="stroke:#F1F1F1;stroke-width:1.5;" width="214.1611" x="386" y="187"/><text fill="#000000" font-family="sans-serif" font-size="14" font-weight="bold" lengthAdjust="spacing" textLength="88.9492" x="391" y="201.9951">description</text><text fill="#000000" font-family="sans-serif" font-size="14" lengthAdjust="spacing" textLength="105.2119" x="489.9492" y="201.9951">Property group</text><line style="stroke:#000000;stroke-width:1;" x1="484.9492" x2="484.9492" y1="187" y2="207.2969"/><line style="stroke:#000000;stroke-width:1;" x1="386" x2="600.1611" y1="207.2969" y2="207.2969"/><text fill="#000000" font-family="sans-serif" font-size="14" font-weight="bold" lengthAdjust="spacing" textLength="63.0342" x="391" y="222.292">extends</text><text fill="#000000" font-family="sans-serif" font-size="14" lengthAdjust="spacing" textLength="54.2295" x="489.9492" y="222.292">Literate</text><line style="stroke:#000000;stroke-width:1;" x1="484.9492" x2="484.9492" y1="207.2969" y2="227.5938"/><rect fill="none" height="40.5938" rx="5" ry="5" style="stroke:#000000;stroke-width:1.5;" width="214.1611" x="386" y="187"/><rect fill="#F1F1F1" height="40.5938" rx="5" ry="5" style="stroke:#F1F1F1;stroke-width:1.5;" width="241.8193" x="372" y="246"/><text fill="#000000" font-family="sans-serif" font-size="14" font-weight="bold" lengthAdjust="spacing" textLength="88.9492" x="377" y="260.9951">description</text><text fill="#000000" font-family="sans-serif" font-size="14" lengthAdjust="spacing" textLength="132.8701" x="475.9492" y="260.9951">Individual property</text><line style="stroke:#000000;stroke-width:1;" x1="470.9492" x2="470.9492" y1="246" y2="266.2969"/><line style="stroke:#000000;stroke-width:1;" x1="372" x2="613.8193" y1="266.2969" y2="266.2969"/><text fill="#000000" font-family="sans-serif" font-size="14" font-weight="bold" lengthAdjust="spacing" textLength="63.0342" x="377" y="281.292">extends</text><text fill="#000000" font-family="sans-serif" font-size="14" lengthAdjust="spacing" textLength="54.2295" x="475.9492" y="281.292">Literate</text><line style="stroke:#000000;stroke-width:1;" x1="470.9492" x2="470.9492" y1="266.2969" y2="286.5938"/><rect fill="none" height="40.5938" rx="5" ry="5" style="stroke:#000000;stroke-width:1.5;" width="241.8193" x="372" y="246"/><path d="M322.5,107.5 L335.5,107.5 C362.3006,107.5 349.5591,74.1519 372,59.5 C382.6182,52.5673 394.7336,47.2897 407.0942,43.2724" fill="none" style="stroke:#000000;stroke-width:1;stroke-dasharray:3.0,3.0;"/><path d="M407.9832,46.1911 L409.2832,42.6057 L406.2052,40.3538 L414.3908,41.0498 L407.9832,46.1911" fill="#000000"/><ellipse cx="322.5" cy="107.5" fill="#000000" rx="3" ry="3" style="stroke:#000000;stroke-width:1;"/><path d="M322.5,128.5 L335.5,128.5 C335.753,128.5 367.6252,120.5889 402.5835,111.8929" fill="none" style="stroke:#000000;stroke-width:1;stroke-dasharray:3.0,3.0;"/><path d="M403.3295,114.8914 L404.8324,111.3334 L401.8375,108.8944 L410.0798,110.0279 L403.3295,114.8914" fill="#000000"/><ellipse cx="322.5" cy="128.5" fill="#000000" rx="3" ry="3" style="stroke:#000000;stroke-width:1;"/><path d="M322.5,148.5 L335.5,148.5 C346.0195,148.5 356.9354,148.5 367.8892,148.5" fill="none" style="stroke:#000000;stroke-width:1;stroke-dasharray:3.0,3.0;"/><path d="M367.8892,151.534 L370.1647,148.5 L367.8892,145.466 L375.4743,148.5 L367.8892,151.534" fill="#000000"/><ellipse cx="322.5" cy="148.5" fill="#000000" rx="3" ry="3" style="stroke:#000000;stroke-width:1;"/><path d="M322.5,168.5 L335.5,168.5 C352.32,168.5 355.7103,174.3095 372,178.5 C380.5472,180.6988 389.4488,182.9374 398.3718,185.1467" fill="none" style="stroke:#000000;stroke-width:1;stroke-dasharray:3.0,3.0;"/><path d="M397.6329,188.1439 L400.6197,185.7009 L399.1107,182.1495 L405.8648,186.9941 L397.6329,188.1439" fill="#000000"/><ellipse cx="322.5" cy="168.5" fill="#000000" rx="3" ry="3" style="stroke:#000000;stroke-width:1;"/><path d="M322.5,189.5 L335.5,189.5 C362.3006,189.5 349.5591,222.8481 372,237.5 C374.6857,239.2535 377.4672,240.9011 380.3242,242.4493" fill="none" style="stroke:#000000;stroke-width:1;stroke-dasharray:3.0,3.0;"/><path d="M378.9503,245.1668 L382.3623,243.4797 L381.6981,239.7317 L387.118,245.884 L378.9503,245.1668" fill="#000000"/><ellipse cx="322.5" cy="189.5" fill="#000000" rx="3" ry="3" style="stroke:#000000;stroke-width:1;"/><path d="M122,148.5 L135,148.5 C144.2554,148.5 153.9209,148.5 163.5603,148.5" fill="none" style="stroke:#000000;stroke-width:1;stroke-dasharray:3.0,3.0;"/><path d="M163.5603,151.5867 L165.8754,148.5 L163.5603,145.4133 L171.2771,148.5 L163.5603,151.5867" fill="#000000"/><ellipse cx="122" cy="148.5" fill="#000000" rx="3" ry="3" style="stroke:#000000;stroke-width:1;"/><!--SRC=[ZP5FJy904CNl-oacFKa2HF1FJ4yeg14X4YjSZ8Ub7UfWEzliJgl4-DtTWcYCa9WzpSnxltdPwJdHLfREi7fNGT_aXM5a2KBmvOW4hHRqrMEGe8ij5KA6WoPugKMWlCWmztgzRZyrLH2LyoN6Qy0lImZ1mEIQ6BoSP5Kpy4sG4rVFlbTzU4O_qyxj8aJnC-OQ4bmGqpR9FigvYALvAHZvF1l07-34cWAjh22rfYp-HTk5kU64AafAdK7nHTpBKlNh-VxwqzKaqopJyGWgjCxZeDFk7dPFsaTp5Dtf74pvXSqhG-nFGnc2K8uDTN0z6O4pfOqH4dARQDxTK4DTQRWlkTQ5S5SW3mUtsmPSSaNMS7qoDPoDVmIdnwqB4eZG-Xmm6wi1BdIPYNV49Y5EGvW-NBNEr4XpMkhKiv5LttYkNVbPz0a0]--></g></svg>