<svg xmlns="http://www.w3.org/2000/svg" xmlns:xlink="http://www.w3.org/1999/xlink" contentStyleType="text/css" data-diagram-type="CLASS" height="295px" preserveAspectRatio="none" style="width:812px;height:295px;background:#FFFFFF;" version="1.1" viewBox="0 0 812 295" width="812px" zoomAndPan="magnify"><defs/><g><!--cluster base--><g class="cluster" data-entity="base" data-source-line="11" data-uid="ent0002" id="cluster_base"><rect fill="none" height="282.48" style="stroke:#181818;stroke-width:1;" width="799" x="7" y="7"/><text fill="#000000" font-family="sans-serif" font-size="14" font-weight="bold" lengthAdjust="spacing" textLength="135.3174" x="338.8413" y="21.9951">&#1041;&#1072;&#1079;&#1086;&#1074;&#1099;&#1077; &#1084;&#1086;&#1076;&#1091;&#1083;&#1080;</text></g><!--class baseobjects--><g class="entity" data-entity="baseobjects" data-source-line="13" data-uid="ent0003" id="entity_baseobjects"><rect fill="#F1F1F1" height="26.2969" rx="2.5" ry="2.5" style="stroke:#181818;stroke-width:0.5;" width="135.9307" x="511.03" y="152.74"/><text fill="#000000" font-family="sans-serif" font-size="14" lengthAdjust="spacing" textLength="129.9307" x="514.03" y="170.7351">&#1041;&#1072;&#1079;&#1086;&#1074;&#1099;&#1077; &#1086;&#1073;&#1098;&#1077;&#1082;&#1090;&#1099;</text></g><!--class takeoffice--><g class="entity" data-entity="takeoffice" data-source-line="14" data-uid="ent0004" id="entity_takeoffice"><rect fill="#F1F1F1" height="42.5938" rx="2.5" ry="2.5" style="stroke:#181818;stroke-width:0.5;" width="145.3779" x="293.31" y="144.59"/><text fill="#000000" font-family="sans-serif" font-size="14" lengthAdjust="spacing" textLength="139.3779" x="296.31" y="162.5851">&#1044;&#1077;&#1083;&#1086;&#1087;&#1088;&#1086;&#1080;&#1079;&#1074;&#1086;&#1076;&#1089;&#1090;&#1074;&#1086;</text><text fill="#000000" font-family="sans-serif" font-size="14" lengthAdjust="spacing" textLength="22.2646" x="354.8666" y="178.882">4.5</text></g><!--class workflow--><g class="entity" data-entity="workflow" data-source-line="15" data-uid="ent0005" id="entity_workflow"><rect fill="#F1F1F1" height="42.5938" rx="2.5" ry="2.5" style="stroke:#181818;stroke-width:0.5;" width="94.3818" x="22.81" y="144.59"/><text fill="#000000" font-family="sans-serif" font-size="14" lengthAdjust="spacing" textLength="87.8281" x="26.0869" y="162.5851">&#1059;&#1087;&#1088;&#1072;&#1074;&#1083;&#1077;&#1085;&#1080;&#1077;</text><text fill="#000000" font-family="sans-serif" font-size="14" lengthAdjust="spacing" textLength="88.3818" x="25.81" y="178.882">&#1087;&#1088;&#1086;&#1094;&#1077;&#1089;&#1089;&#1072;&#1084;&#1080;</text></g><!--class windowsclient--><g class="entity" data-entity="windowsclient" data-source-line="16" data-uid="ent0006" id="entity_windowsclient"><rect fill="#F1F1F1" height="26.2969" rx="2.5" ry="2.5" style="stroke:#181818;stroke-width:0.5;" width="126.2783" x="356.86" y="247.18"/><text fill="#000000" font-family="sans-serif" font-size="14" lengthAdjust="spacing" textLength="120.2783" x="359.86" y="265.1751">Windows-&#1082;&#1083;&#1080;&#1077;&#1085;&#1090;</text></g><!--class documentmanagement--><g class="entity" data-entity="documentmanagement" data-source-line="18" data-uid="ent0007" id="entity_documentmanagement"><rect fill="#F1F1F1" height="42.5938" rx="2.5" ry="2.5" style="stroke:#181818;stroke-width:0.5;" width="105.709" x="152.15" y="144.59"/><text fill="#000000" font-family="sans-serif" font-size="14" lengthAdjust="spacing" textLength="87.8281" x="161.0904" y="162.5851">&#1059;&#1087;&#1088;&#1072;&#1074;&#1083;&#1077;&#1085;&#1080;&#1077;</text><text fill="#000000" font-family="sans-serif" font-size="14" lengthAdjust="spacing" textLength="99.709" x="155.15" y="178.882">&#1076;&#1086;&#1082;&#1091;&#1084;&#1077;&#1085;&#1090;&#1072;&#1084;&#1080;</text></g><!--class approvaldesigner--><g class="entity" data-entity="approvaldesigner" data-source-line="19" data-uid="ent0008" id="entity_approvaldesigner"><rect fill="#F1F1F1" height="42.5938" rx="2.5" ry="2.5" style="stroke:#181818;stroke-width:0.5;" width="107.5889" x="682.21" y="144.59"/><text fill="#000000" font-family="sans-serif" font-size="14" lengthAdjust="spacing" textLength="94.7461" x="688.6314" y="162.5851">&#1050;&#1086;&#1085;&#1089;&#1090;&#1088;&#1091;&#1082;&#1090;&#1086;&#1088;</text><text fill="#000000" font-family="sans-serif" font-size="14" lengthAdjust="spacing" textLength="101.5889" x="685.21" y="178.882">&#1089;&#1086;&#1075;&#1083;&#1072;&#1089;&#1086;&#1074;&#1072;&#1085;&#1080;&#1081;</text></g><!--class platform--><g class="entity" data-entity="platform" data-source-line="21" data-uid="ent0009" id="entity_platform"><rect fill="#F1F1F1" height="26.2969" rx="2.5" ry="2.5" style="stroke:#181818;stroke-width:0.5;" width="90.7725" x="374.61" y="50.14"/><text fill="#000000" font-family="sans-serif" font-size="14" lengthAdjust="spacing" textLength="84.7725" x="377.61" y="68.1351">&#1055;&#1083;&#1072;&#1090;&#1092;&#1086;&#1088;&#1084;&#1072;</text></g><!--class worker--><g class="entity" data-entity="worker" data-source-line="22" data-uid="ent0010" id="entity_worker"><rect fill="#F1F1F1" height="42.5938" rx="2.5" ry="2.5" style="stroke:#181818;stroke-width:0.5;" width="152.2686" x="569.87" y="42"/><text fill="#000000" font-family="sans-serif" font-size="14" lengthAdjust="spacing" textLength="56.834" x="617.5873" y="59.9951">&#1057;&#1083;&#1091;&#1078;&#1073;&#1072;</text><text fill="#000000" font-family="sans-serif" font-size="14" lengthAdjust="spacing" textLength="141.8184" x="577.3202" y="76.292">&#1092;&#1086;&#1085;&#1086;&#1074;&#1099;&#1093; &#1086;&#1087;&#1077;&#1088;&#1072;&#1094;&#1080;&#1081;</text></g><!--reverse link platform to baseobjects--><g class="link" data-entity-1="platform" data-entity-2="baseobjects" data-source-line="26" data-uid="lnk11" id="link_platform_baseobjects"><path codeLine="26" d="M452.04,82.67 C452.04,109.74 452.04,162.48 452.04,162.48 C452.04,162.48 480.64,162.48 510.69,162.48" fill="none" id="platform-backto-baseobjects" style="stroke:#181818;stroke-width:1;"/><polygon fill="#181818" points="452.04,76.67,448.04,85.67,452.04,81.67,456.04,85.67,452.04,76.67" style="stroke:#181818;stroke-width:1;"/></g><!--reverse link platform to workflow--><g class="link" data-entity-1="platform" data-entity-2="workflow" data-source-line="27" data-uid="lnk12" id="link_platform_workflow"><path codeLine="27" d="M368.24,59.48 C273.37,59.48 70,59.48 70,59.48 C70,59.48 70,112.97 70,144.1" fill="none" id="platform-backto-workflow" style="stroke:#181818;stroke-width:1;"/><polygon fill="#181818" points="374.24,59.48,365.24,55.48,369.24,59.48,365.24,63.48,374.24,59.48" style="stroke:#181818;stroke-width:1;"/></g><!--reverse link platform to takeoffice--><g class="link" data-entity-1="platform" data-entity-2="takeoffice" data-source-line="28" data-uid="lnk13" id="link_platform_takeoffice"><path codeLine="28" d="M406.65,82.7 C406.65,99.87 406.65,123.82 406.65,144.23" fill="none" id="platform-backto-takeoffice" style="stroke:#181818;stroke-width:1;"/><polygon fill="#181818" points="406.65,76.7,402.65,85.7,406.65,81.7,410.65,85.7,406.65,76.7" style="stroke:#181818;stroke-width:1;"/></g><!--reverse link platform to windowsclient--><g class="link" data-entity-1="platform" data-entity-2="windowsclient" data-source-line="29" data-uid="lnk14" id="link_platform_windowsclient"><path codeLine="29" d="M445.36,82.84 C445.36,118.83 445.36,210.59 445.36,246.69" fill="none" id="platform-backto-windowsclient" style="stroke:#181818;stroke-width:1;"/><polygon fill="#181818" points="445.36,76.84,441.36,85.84,445.36,81.84,449.36,85.84,445.36,76.84" style="stroke:#181818;stroke-width:1;"/></g><!--reverse link platform to documentmanagement--><g class="link" data-entity-1="platform" data-entity-2="documentmanagement" data-source-line="30" data-uid="lnk15" id="link_platform_documentmanagement"><path codeLine="30" d="M368.14,68.48 C305,68.48 205,68.48 205,68.48 C205,68.48 205,115.57 205,144.27" fill="none" id="platform-backto-documentmanagement" style="stroke:#181818;stroke-width:1;"/><polygon fill="#181818" points="374.14,68.48,365.14,64.48,369.14,68.48,365.14,72.48,374.14,68.48" style="stroke:#181818;stroke-width:1;"/></g><!--reverse link platform to approvaldesigner--><g class="link" data-entity-1="platform" data-entity-2="approvaldesigner" data-source-line="31" data-uid="lnk16" id="link_platform_approvaldesigner"><path codeLine="31" d="M458.71,82.76 C458.71,107 458.71,149.48 458.71,149.48 C458.71,149.48 601.18,149.48 681.88,149.48" fill="none" id="platform-backto-approvaldesigner" style="stroke:#181818;stroke-width:1;"/><polygon fill="#181818" points="458.71,76.76,454.71,85.76,458.71,81.76,462.71,85.76,458.71,76.76" style="stroke:#181818;stroke-width:1;"/></g><!--reverse link approvaldesigner to windowsclient--><g class="link" data-entity-1="approvaldesigner" data-entity-2="windowsclient" data-source-line="33" data-uid="lnk18" id="link_approvaldesigner_windowsclient"><path codeLine="33" d="M675.75,183.48 C599.87,183.48 477.22,183.48 477.22,183.48 C477.22,183.48 477.22,224.93 477.22,246.95" fill="none" id="approvaldesigner-backto-windowsclient" style="stroke:#181818;stroke-width:1;"/><polygon fill="#181818" points="681.75,183.48,672.75,179.48,676.75,183.48,672.75,187.48,681.75,183.48" style="stroke:#181818;stroke-width:1;"/></g><!--reverse link documentmanagement to windowsclient--><g class="link" data-entity-1="documentmanagement" data-entity-2="windowsclient" data-source-line="34" data-uid="lnk20" id="link_documentmanagement_windowsclient"><path codeLine="34" d="M205,193.36 C205,220.15 205,256.48 205,256.48 C205,256.48 292.97,256.48 356.37,256.48" fill="none" id="documentmanagement-backto-windowsclient" style="stroke:#181818;stroke-width:1;"/><polygon fill="#181818" points="205,187.36,201,196.36,205,192.36,209,196.36,205,187.36" style="stroke:#181818;stroke-width:1;"/></g><!--reverse link baseobjects to windowsclient--><g class="link" data-entity-1="baseobjects" data-entity-2="windowsclient" data-source-line="35" data-uid="lnk22" id="link_baseobjects_windowsclient"><path codeLine="35" d="M504.79,170.48 C483.42,170.48 471.3,170.48 471.3,170.48 C471.3,170.48 471.3,221.55 471.3,246.69" fill="none" id="baseobjects-backto-windowsclient" style="stroke:#181818;stroke-width:1;"/><polygon fill="#181818" points="510.79,170.48,501.79,166.48,505.79,170.48,501.79,174.48,510.79,170.48" style="stroke:#181818;stroke-width:1;"/></g><!--reverse link takeoffice to windowsclient--><g class="link" data-entity-1="takeoffice" data-entity-2="windowsclient" data-source-line="36" data-uid="lnk24" id="link_takeoffice_windowsclient"><path codeLine="36" d="M397.77,193.32 C397.77,211.6 397.77,231.33 397.77,246.86" fill="none" id="takeoffice-backto-windowsclient" style="stroke:#181818;stroke-width:1;"/><polygon fill="#181818" points="397.77,187.32,393.77,196.32,397.77,192.32,401.77,196.32,397.77,187.32" style="stroke:#181818;stroke-width:1;"/></g><!--reverse link workflow to windowsclient--><g class="link" data-entity-1="workflow" data-entity-2="windowsclient" data-source-line="37" data-uid="lnk26" id="link_workflow_windowsclient"><path codeLine="37" d="M70,193.5 C70,222.79 70,265.48 70,265.48 C70,265.48 255.76,265.48 356.62,265.48" fill="none" id="workflow-backto-windowsclient" style="stroke:#181818;stroke-width:1;"/><polygon fill="#181818" points="70,187.5,66,196.5,70,192.5,74,196.5,70,187.5" style="stroke:#181818;stroke-width:1;"/></g><!--reverse link worker to approvaldesigner--><g class="link" data-entity-1="worker" data-entity-2="approvaldesigner" data-source-line="39" data-uid="lnk27" id="link_worker_approvaldesigner"><path codeLine="39" d="M702.17,91.05 C702.17,108.46 702.17,126.76 702.17,144.16" fill="none" id="worker-backto-approvaldesigner" style="stroke:#181818;stroke-width:1;"/><polygon fill="#181818" points="702.17,85.05,698.17,94.05,702.17,90.05,706.17,94.05,702.17,85.05" style="stroke:#181818;stroke-width:1;"/></g><!--reverse link worker to baseobjects--><g class="link" data-entity-1="worker" data-entity-2="baseobjects" data-source-line="40" data-uid="lnk28" id="link_worker_baseobjects"><path codeLine="40" d="M608.42,91.05 C608.42,111.4 608.42,135.16 608.42,152.32" fill="none" id="worker-backto-baseobjects" style="stroke:#181818;stroke-width:1;"/><polygon fill="#181818" points="608.42,85.05,604.42,94.05,608.42,90.05,612.42,94.05,608.42,85.05" style="stroke:#181818;stroke-width:1;"/></g><!--SRC=[XLAxZXCn5Etz5MQRhOA411r2WfgEbMZIE3Dt4XC_HhQ7426aR7WKR8L4HOCGFv3DRc19ijbViF-8wmaPUPIHQ4RMd9VlkJuTyHmeoD9DQGusCxnqN2joUgyqR2WP5MogAqT1Z8aTSrKomoGra3ccXWAUQPE3EHlnRAp0MleW8ULGi4guCtZZdWe-L1AKenb-m2GimGiGNC4BPvY3uPHQBNYU4AHMEXiPBO4MJ5X88Ekc0l1hUEOgAKWoYmGv06CJydCCSTCIg3Pkf0bfPg0d_ejV-Dz-vvVXmg-et-BnEhpt6tzpGfcb0sQ1lYKa4mndFABl_6Nux5T-7URXeX7emIjCi8teAp8soBqBC_pUeC6oZZaFytZgguVt7zLYnyQWYu9dq6X_rge5yZReSelgLL_jdS8dlqAFSqIt_wuxqMPS23qvo5zobUk9xVbrd2WQXFcUk0SomN4hv3zfrtZRDPQotHiaURdEghXSoHGRGZmrLjzGT1j733EKOa5uuLbVuNLt_Whj5_LfYMOnvazjnyhIwDTCu7F4LuEFfN7xNYlcuKDqmVX5pIy5SuKsig7zy1iC- -Kl_QAlQ6IZUxsjy35kwmuRm_cmkKDaR2m6lIFau4OVztgjFRQ0fkBMtsHpRNQhvnRKqLqBFowZPKPxLTbxSipg8dL4TT7IcRlmPCWkk6c6x4ljdYB1aho_]--></g></svg>